<svg width="18" height="18" viewBox="0 0 18 18" fill="none" xmlns="http://www.w3.org/2000/svg">
<g clip-path="url(#clip0_227_2084)">
<path fill-rule="evenodd" clip-rule="evenodd" d="M2.77929 0.98251C3.06503 0.860615 3.39549 0.993442 3.51739 1.27919L3.00019 1.49982C3.51739 1.27919 3.51735 1.27909 3.51739 1.27919L3.51792 1.28044L3.519 1.28297L3.52274 1.29183L3.53636 1.32444C3.54807 1.35266 3.56494 1.39369 3.58622 1.44653C3.62878 1.55219 3.68904 1.70517 3.76109 1.89739C3.90508 2.28153 4.09677 2.82394 4.28853 3.45963C4.66906 4.72107 5.0625 6.39027 5.0625 7.92847C5.0625 8.37892 4.99695 8.79546 4.8875 9.1874H13.1125C13.003 8.79546 12.9375 8.37892 12.9375 7.92847C12.9375 6.39027 13.3309 4.72107 13.7115 3.45963C13.9032 2.82394 14.0949 2.28153 14.2389 1.89739C14.311 1.70517 14.3712 1.55219 14.4138 1.44653C14.4351 1.39369 14.4519 1.35266 14.4636 1.32444L14.4773 1.29183L14.481 1.28297L14.4821 1.28044L14.4824 1.27965C14.4825 1.27955 14.4826 1.27919 15 1.4999L14.4824 1.27965C14.6043 0.993906 14.935 0.860615 15.2207 0.98251C15.5064 1.10439 15.6393 1.43478 15.5174 1.7205L15.5168 1.72195L15.5141 1.72832L15.5027 1.75576C15.4924 1.78048 15.4771 1.81783 15.4573 1.86683C15.4178 1.96484 15.3609 2.10932 15.2923 2.29226C15.1551 2.65843 14.9718 3.17711 14.7885 3.78454C14.4191 5.00931 14.0625 6.5544 14.0625 7.92847C14.0625 8.72262 14.3312 9.40403 14.742 10.1457C14.8834 10.4008 15.0492 10.6736 15.2251 10.963C15.6105 11.5971 16.0447 12.3113 16.3772 13.0962C16.7771 14.0402 17.0625 15.1382 17.0625 16.4999C17.0625 16.8106 16.8107 17.0624 16.5 17.0624C16.1893 17.0624 15.9375 16.8106 15.9375 16.4999C15.9375 15.3819 15.72 14.4781 15.406 13.692C11.3603 13.8022 9.81115 15.8452 9.53363 16.6778C9.45707 16.9075 9.24212 17.0624 9 17.0624C8.75788 17.0624 8.54293 16.9075 8.46636 16.6778C8.18885 15.8452 6.63968 13.8022 2.59403 13.692C2.27997 14.4781 2.0625 15.3819 2.0625 16.4999C2.0625 16.8106 1.81066 17.0624 1.5 17.0624C1.18934 17.0624 0.9375 16.8106 0.9375 16.4999C0.9375 15.1382 1.22287 14.0402 1.62276 13.0962C1.95527 12.3113 2.38945 11.5971 2.7749 10.963C2.95084 10.6736 3.11664 10.4008 3.25796 10.1457C3.66882 9.40403 3.9375 8.72262 3.9375 7.92847C3.9375 6.5544 3.58094 5.00931 3.21147 3.78454C3.02823 3.17711 2.84492 2.65843 2.70766 2.29226C2.63909 2.10932 2.58216 1.96484 2.54268 1.86683C2.52295 1.81783 2.50759 1.78048 2.49733 1.75576L2.48587 1.72832L2.48318 1.72195L2.48262 1.72065C2.36081 1.43493 2.49358 1.10439 2.77929 0.98251ZM3.12111 12.5906C6.27867 12.7996 8.12274 14.1312 9 15.328C9.87726 14.1312 11.7213 12.7996 14.8789 12.5906C14.6992 12.2647 14.5109 11.956 14.321 11.6446C14.1326 11.3357 13.9427 11.0243 13.7579 10.6908C13.6885 10.5655 13.621 10.4386 13.5564 10.3096C13.5379 10.3115 13.519 10.3124 13.5 10.3124H4.5C4.48096 10.3124 4.46215 10.3115 4.4436 10.3096C4.37903 10.4386 4.31149 10.5655 4.24206 10.6908C4.05734 11.0243 3.86737 11.3358 3.67899 11.6446C3.48907 11.956 3.30077 12.2647 3.12111 12.5906Z" fill="#94A3B8"/>
</g>
<defs>
<clipPath id="clip0_227_2084">
<rect width="18" height="18" fill="white"/>
</clipPath>
</defs>
</svg>
