<svg width="18" height="18" viewBox="0 0 18 18" fill="none" xmlns="http://www.w3.org/2000/svg">
<g clip-path="url(#clip0_227_2082)">
<path fill-rule="evenodd" clip-rule="evenodd" d="M2.08497 8.4375H3C3.31066 8.4375 3.5625 8.68934 3.5625 9C3.5625 9.31066 3.31066 9.5625 3 9.5625H2.08497C2.20477 11.0555 2.79729 12.4152 3.71275 13.4918L4.47725 12.7273C4.69692 12.5076 5.05308 12.5076 5.27275 12.7273C5.49242 12.9469 5.49242 13.3031 5.27275 13.5227L4.50825 14.2872C5.71856 15.3165 7.28675 15.9375 9 15.9375C10.7132 15.9375 12.2814 15.3165 13.4918 14.2872L12.7273 13.5227C12.5076 13.3031 12.5076 12.9469 12.7273 12.7273C12.9469 12.5076 13.3031 12.5076 13.5227 12.7273L14.2872 13.4918C15.2027 12.4152 15.7952 11.0555 15.915 9.5625H14.9998C14.6892 9.5625 14.4373 9.31066 14.4373 9C14.4373 8.68934 14.6892 8.4375 14.9998 8.4375H15.915C15.7952 6.94446 15.2027 5.58478 14.2872 4.50825L13.5227 5.27275C13.3031 5.49242 12.9469 5.49242 12.7273 5.27275C12.5076 5.05308 12.5076 4.69692 12.7273 4.47725L13.4918 3.71275C12.4152 2.79729 11.0555 2.20477 9.5625 2.08497V3.00016C9.5625 3.31082 9.31066 3.56266 9 3.56266C8.68934 3.56266 8.4375 3.31082 8.4375 3.00016V2.08497C6.94446 2.20477 5.58478 2.79729 4.50825 3.71275L5.27275 4.47725C5.49242 4.69692 5.49242 5.05308 5.27275 5.27275C5.05308 5.49242 4.69692 5.49242 4.47725 5.27275L3.71275 4.50825C2.79729 5.58478 2.20477 6.94446 2.08497 8.4375ZM0.9375 9C0.9375 4.5472 4.5472 0.9375 9 0.9375C13.4528 0.9375 17.0625 4.5472 17.0625 9C17.0625 13.4528 13.4528 17.0625 9 17.0625C4.5472 17.0625 0.9375 13.4528 0.9375 9ZM10.3752 7.98865C9.71615 7.32964 8.64769 7.32964 7.98868 7.98865C7.32967 8.64766 7.32967 9.71612 7.98868 10.3751C8.07505 10.4615 8.2479 10.569 8.52709 10.6785C8.7966 10.7842 9.12201 10.8753 9.47138 10.9521C10.0415 11.0776 10.387 11.1509 10.6454 11.1554C10.8562 11.1591 10.942 11.1164 11.0292 11.0292C11.1164 10.942 11.1591 10.8562 11.1554 10.6454C11.1509 10.387 11.0776 10.0415 10.9522 9.47136C10.8753 9.12198 10.7842 8.79658 10.6785 8.52706C10.569 8.24788 10.4615 8.07502 10.3752 7.98865ZM7.19318 7.19315C8.29153 6.09481 10.0723 6.09481 11.1707 7.19315C11.4185 7.44102 11.5948 7.7822 11.7259 8.11637C11.8607 8.46021 11.9668 8.84748 12.0509 9.22961C12.0545 9.24615 12.0582 9.26264 12.0618 9.27908C12.1728 9.78332 12.2735 10.2408 12.2803 10.6258C12.288 11.0708 12.1731 11.4762 11.8247 11.8247C11.4763 12.1731 11.0708 12.288 10.6258 12.2802C10.2409 12.2735 9.78335 12.1728 9.27911 12.0618C9.26267 12.0581 9.24617 12.0545 9.22963 12.0509C8.8475 11.9668 8.46024 11.8607 8.1164 11.7259C7.78223 11.5948 7.44105 11.4185 7.19318 11.1706C6.09483 10.0723 6.09483 8.2915 7.19318 7.19315Z" fill="#94A3B8"/>
</g>
<defs>
<clipPath id="clip0_227_2082">
<rect width="18" height="18" fill="white"/>
</clipPath>
</defs>
</svg>
