<svg width="18" height="18" viewBox="0 0 18 18" fill="none" xmlns="http://www.w3.org/2000/svg">
<g clip-path="url(#clip0_227_2086)">
<path d="M11.3245 9.07016C11.1859 8.84373 11.0507 8.62292 10.9185 8.46486C10.7781 8.29711 10.532 8.06638 10.1557 8.08149C9.77943 8.09659 9.55264 8.34629 9.42617 8.52475C9.30702 8.69288 9.18998 8.9238 9.06996 9.1606L7.57906 12.1004C7.52276 12.2114 7.47586 12.3038 7.43367 12.3833C7.38238 12.3094 7.32487 12.2232 7.25582 12.1196L7.12316 11.9206C6.97065 11.6918 6.83555 11.4892 6.70605 11.3293C6.5656 11.156 6.40741 11.0012 6.19418 10.8871C5.98095 10.773 5.76443 10.7272 5.54229 10.7065C5.33747 10.6874 5.09392 10.6874 4.81894 10.6874L3.75 10.6874C3.43934 10.6874 3.1875 10.9393 3.1875 11.2499C3.1875 11.5606 3.43934 11.8124 3.75 11.8124H4.79584C5.10085 11.8124 5.29147 11.813 5.43785 11.8266C5.57263 11.8392 5.62784 11.86 5.66334 11.879C5.69884 11.898 5.74675 11.9324 5.83197 12.0376C5.92452 12.1518 6.03073 12.3101 6.19992 12.5639L6.33945 12.7732C6.48065 12.9851 6.61958 13.1936 6.75416 13.3423C6.8988 13.5022 7.14614 13.7153 7.5115 13.6936C7.87687 13.6719 8.09724 13.431 8.22194 13.2552C8.33797 13.0915 8.45123 12.8681 8.56635 12.6409L10.0569 9.70172C10.1157 9.58585 10.1648 9.48919 10.2089 9.40608C10.2595 9.48538 10.3162 9.57781 10.3841 9.6886L10.8746 10.4894C11.0246 10.7345 11.1574 10.9513 11.2863 11.1224C11.4261 11.3079 11.5857 11.4741 11.8055 11.5972C12.0252 11.7203 12.2503 11.7696 12.4815 11.7919C12.6947 11.8125 12.949 11.8124 13.2363 11.8124L14.25 11.8124C14.5607 11.8124 14.8125 11.5606 14.8125 11.2499C14.8125 10.9393 14.5607 10.6874 14.25 10.6874H13.2604C12.9418 10.6874 12.7423 10.6868 12.5895 10.6721C12.4487 10.6585 12.3917 10.6361 12.3553 10.6157C12.3189 10.5953 12.27 10.5584 12.1849 10.4454C12.0925 10.3228 11.9878 10.153 11.8214 9.88134L11.3245 9.07016Z" fill="#94A3B8"/>
<path fill-rule="evenodd" clip-rule="evenodd" d="M8.95697 0.9375C7.22567 0.937491 5.86889 0.937483 4.81028 1.07981C3.72673 1.22549 2.87171 1.52949 2.2006 2.2006C1.52949 2.87171 1.22549 3.72673 1.07981 4.81028C0.937483 5.86889 0.937491 7.22567 0.9375 8.95697V9.04303C0.937491 10.7743 0.937483 12.1311 1.07981 13.1897C1.22549 14.2733 1.52949 15.1283 2.2006 15.7994C2.87171 16.4705 3.72673 16.7745 4.81028 16.9202C5.86889 17.0625 7.22567 17.0625 8.95697 17.0625H9.04303C10.7743 17.0625 12.1311 17.0625 13.1897 16.9202C14.2733 16.7745 15.1283 16.4705 15.7994 15.7994C16.4705 15.1283 16.7745 14.2733 16.9202 13.1897C17.0625 12.1311 17.0625 10.7743 17.0625 9.04303V8.95697C17.0625 7.22567 17.0625 5.86889 16.9202 4.81028C16.7745 3.72673 16.4705 2.87171 15.7994 2.2006C15.1283 1.52949 14.2733 1.22549 13.1897 1.07981C12.1311 0.937483 10.7743 0.937491 9.04303 0.9375H8.95697ZM2.9961 2.9961C3.42334 2.56886 4.00138 2.32369 4.96018 2.19478C5.93517 2.06369 7.21633 2.0625 9 2.0625C10.7837 2.0625 12.0648 2.06369 13.0398 2.19478C13.9986 2.32369 14.5767 2.56886 15.0039 2.9961C15.4311 3.42334 15.6763 4.00138 15.8052 4.96018C15.9363 5.93517 15.9375 7.21633 15.9375 9C15.9375 10.7837 15.9363 12.0648 15.8052 13.0398C15.6763 13.9986 15.4311 14.5767 15.0039 15.0039C14.5767 15.4311 13.9986 15.6763 13.0398 15.8052C12.0648 15.9363 10.7837 15.9375 9 15.9375C7.21633 15.9375 5.93517 15.9363 4.96018 15.8052C4.00138 15.6763 3.42334 15.4311 2.9961 15.0039C2.56886 14.5767 2.32369 13.9986 2.19478 13.0398C2.06369 12.0648 2.0625 10.7837 2.0625 9C2.0625 7.21633 2.06369 5.93517 2.19478 4.96018C2.32369 4.00138 2.56886 3.42334 2.9961 2.9961Z" fill="#94A3B8"/>
</g>
<defs>
<clipPath id="clip0_227_2086">
<rect width="18" height="18" fill="white"/>
</clipPath>
</defs>
</svg>
