<svg width="120" height="48" viewBox="0 0 120 48" fill="none" xmlns="http://www.w3.org/2000/svg">
<path d="M57.4071 12.7823H54.0973V10.4395H63.5677V12.7823H60.2037V22.7632H57.4071V12.7823Z" fill="white"/>
<path d="M68.4686 22.7633L68.3044 21.867H68.2505C67.6661 22.5817 66.7499 22.9646 65.6919 22.9646C63.8823 22.9646 62.8047 21.6486 62.8047 20.2219C62.8047 17.9018 64.8893 16.7871 68.052 16.8042V16.6765C68.052 16.2001 67.7964 15.525 66.4266 15.525C65.5133 15.525 64.5433 15.837 63.9588 16.2029L63.4485 14.4103C64.0697 14.0615 65.2948 13.6247 66.923 13.6247C69.9038 13.6247 70.8543 15.3803 70.8543 17.4821V20.5907C70.8543 21.45 70.8909 22.2726 70.9818 22.7661H68.4774L68.4686 22.7633ZM67.9723 9.92896L69.7818 12.7085H67.9723L67.0593 11.1174H67.0222L66.0889 12.7085H64.2794L66.1089 9.92896H67.9723ZM68.1369 18.54C66.6734 18.523 65.5416 18.869 65.5416 19.9468C65.5416 20.6615 66.0184 21.0076 66.6395 21.0076C67.3344 21.0076 67.9013 20.5509 68.0831 19.9837C68.1198 19.839 68.1369 19.6745 68.1369 19.51V18.54Z" fill="white"/>
<path d="M72.6721 16.6765C72.6721 15.5618 72.6351 14.6117 72.5984 13.826H74.9382L75.0658 15.0314H75.12C75.5055 14.4642 76.2913 13.6218 77.8258 13.6218C78.9771 13.6218 79.8905 14.2061 80.2764 15.1392H80.3131C80.642 14.6826 81.045 14.3167 81.4644 14.0614C81.958 13.7693 82.5054 13.6218 83.1664 13.6218C84.885 13.6218 86.1815 14.8272 86.1815 17.499V22.7632H83.4757V17.899C83.4757 16.6028 83.0559 15.8512 82.1593 15.8512C81.5214 15.8512 81.0646 16.2908 80.8804 16.8212C80.8066 17.0225 80.7696 17.3147 80.7696 17.5331V22.7604H78.0638V17.7515C78.0638 16.6198 77.6611 15.8512 76.7848 15.8512C76.0728 15.8512 75.653 16.4014 75.4884 16.858C75.3979 17.0764 75.3779 17.3317 75.3779 17.5529V22.7632H72.6721V16.6765Z" fill="white"/>
<path d="M92.7445 19.6008L91.8682 22.7633H88.9782L92.7445 10.4423H96.4007L100.221 22.7633H97.2231L96.2731 19.6008H92.7417H92.7445ZM95.8732 17.5161L95.1046 14.901C94.8861 14.1693 94.6649 13.2559 94.4835 12.5242H94.4464C94.2622 13.2559 94.0804 14.1891 93.8791 14.901L93.1503 17.5161H95.8732Z" fill="white"/>
<path d="M101.103 16.6737C101.103 15.559 101.066 14.606 101.03 13.8232H103.443L103.571 15.0485H103.625C103.991 14.4812 104.904 13.6218 106.385 13.6218C108.214 13.6218 109.584 14.8301 109.584 17.4622V22.7632H106.804V17.8082C106.804 16.6567 106.404 15.871 105.398 15.871C104.629 15.871 104.172 16.4014 103.991 16.9119C103.917 17.0764 103.88 17.3516 103.88 17.6068V22.7632H101.1V16.6737H101.103Z" fill="white"/>
<path d="M111.45 10.4423H114.23V14.884H114.267C114.559 14.5011 114.924 14.209 115.361 13.9707C115.764 13.7523 116.294 13.6218 116.805 13.6218C118.578 13.6218 119.933 14.8471 119.933 17.5331V22.7633H117.154V17.8451C117.154 16.6737 116.754 15.871 115.71 15.871C114.978 15.871 114.522 16.3475 114.321 16.841C114.247 17.0254 114.23 17.2608 114.23 17.4622V22.7633H111.45V10.4423Z" fill="white"/>
<path d="M60.1922 28.5039V33.198H64.169V28.5039H66.9625V40.8277H64.169V35.6429H60.1922V40.8277H57.3987V28.5039H60.1922Z" fill="white"/>
<path d="M77.5476 36.23C77.5476 39.5201 75.2672 41.029 72.8592 41.029C70.23 41.029 68.2617 39.3017 68.2617 36.3974C68.2617 33.493 70.1195 31.6182 73.0238 31.6182C75.7635 31.6182 77.5476 33.51 77.5476 36.2329V36.23ZM71.1489 36.3236C71.1489 37.8666 71.7389 39.0266 72.9329 39.0266C74.0365 39.0266 74.6632 37.9431 74.6632 36.3066C74.6632 34.982 74.2035 33.6234 72.9329 33.6234C71.6624 33.6234 71.1489 35.0019 71.1489 36.3264V36.3236Z" fill="white"/>
<path d="M78.8923 38.3998C79.4054 38.7118 80.4718 39.0606 81.3003 39.0606C82.1283 39.0606 82.4943 38.7855 82.4943 38.326C82.4943 37.8666 82.2192 37.6283 81.1894 37.2795C79.3149 36.6555 78.5973 35.6429 78.6168 34.5765C78.6168 32.886 80.0492 31.6182 82.2758 31.6182C83.3223 31.6182 84.2441 31.8763 84.7946 32.1514L84.315 34.0801C83.9124 33.8589 83.121 33.5667 82.3667 33.5667C81.6858 33.5667 81.3003 33.8418 81.3003 34.2843C81.3003 34.7268 81.6491 34.9452 82.7522 35.3309C84.4625 35.9209 85.1602 36.803 85.1801 38.1077C85.1801 39.7981 83.8757 41.029 81.3031 41.029C80.1258 41.029 79.0793 40.7539 78.3987 40.3852L78.8951 38.3998H78.8923Z" fill="white"/>
<path d="M86.4766 34.8515C86.4766 33.6745 86.4395 32.6818 86.4028 31.8365H88.8303L88.9583 33.0873H88.995C89.656 32.1514 90.5295 31.6351 91.8371 31.6351C93.8054 31.6351 95.4363 33.3454 95.4363 36.213C95.4363 39.486 93.4936 41.029 91.4883 41.029C90.4047 41.029 89.7126 40.5865 89.3099 39.9994H89.2729V44.4666H86.4794V34.8515H86.4766ZM89.2701 36.9674C89.2701 37.1886 89.29 37.3702 89.3271 37.5545C89.5113 38.309 89.9992 38.8791 90.8073 38.8791C92.0213 38.8791 92.6058 37.8665 92.6058 36.3434C92.6058 34.9083 92.0951 33.8248 90.8444 33.8248C90.0531 33.8248 89.5113 34.4119 89.3271 35.2401C89.29 35.3876 89.2701 35.5719 89.2701 35.7365V36.9674Z" fill="white"/>
<path d="M99.6766 29.3378C99.6766 30.1092 99.1065 30.7332 98.1676 30.7332C97.2854 30.7332 96.7153 30.1092 96.7153 29.3378C96.7153 28.5663 97.3025 27.9395 98.2047 27.9395C99.1065 27.9395 99.6567 28.5464 99.6766 29.3378ZM96.789 40.8276V31.8394H99.5829V40.8276H96.789Z" fill="white"/>
<path d="M104.606 29.4115V31.8394H106.609V33.8986H104.606V37.1518C104.606 38.2353 104.881 38.7317 105.709 38.7317C106.095 38.7317 106.279 38.7146 106.538 38.6579L106.554 40.7709C106.206 40.8986 105.525 41.0092 104.754 41.0092C103.851 41.0092 103.1 40.6972 102.64 40.2377C102.127 39.7045 101.869 38.8394 101.869 37.5716V33.8957H101.032V31.8366H101.869V30.1632L104.609 29.4087L104.606 29.4115Z" fill="white"/>
<path d="M115.722 38.6862C115.722 39.5314 115.759 40.3596 115.869 40.856H113.35L113.186 39.9569H113.129C112.542 40.6745 111.623 41.0602 110.557 41.0602C108.736 41.0602 107.652 39.7356 107.652 38.3033C107.652 35.969 109.748 34.8657 112.928 34.8657V34.7551C112.928 34.2587 112.67 33.578 111.291 33.578C110.372 33.578 109.397 33.89 108.809 34.2587L108.293 32.4577C108.917 32.1088 110.151 31.6494 111.785 31.6494C114.78 31.6494 115.719 33.4135 115.719 35.5464V38.689L115.722 38.6862ZM113.019 36.6072C111.549 36.6072 110.409 36.9561 110.409 38.0225C110.409 38.7401 110.886 39.089 111.512 39.089C112.193 39.089 112.78 38.6295 112.965 38.0594C113.001 37.9119 113.019 37.7474 113.019 37.5801V36.6044V36.6072Z" fill="white"/>
<path d="M117.142 28.5039H119.936V40.8248H117.142V28.5039Z" fill="white"/>
<path d="M47.5651 13.7126C45.3158 11.0039 41.8784 9.65101 37.2551 9.65101C32.9894 9.65101 29.2851 10.5189 26.1198 12.2236C25.1583 12.8617 25.527 13.7041 25.7568 14.2855L27.9634 18.8662C30.3714 17.4253 32.9723 16.7134 36.0242 16.7134C37.7742 16.7134 39.1696 17.1218 40.1681 17.8734C41.1664 18.6251 41.6261 19.4845 41.6261 20.775V21.4018C41.0018 21.2345 39.2519 21.1522 36.3759 21.1522C32.6688 21.1522 29.6283 21.9436 27.2515 23.5262C24.3358 25.4436 22.8751 28.1919 22.8751 31.7742C22.8751 31.9756 22.8807 32.1741 22.8893 32.3698C21.6073 33.1271 20.4132 33.5072 19.3127 33.5072C16.9784 33.5072 15.8127 32.0295 15.8127 29.0712V18.2478H19.6842C21.9816 18.2478 22.6765 17.4282 22.6765 15.8342V9.65384H15.8099V3.03107H6.81026V9.64818H0.334961V18.2422H6.82158V28.5663C6.82158 36.7321 10.5286 40.8163 17.9456 40.8163C20.7365 40.8163 23.326 40.0449 25.7199 38.5047C25.7738 38.5501 25.8248 38.5984 25.8816 38.6437C27.7138 40.1016 30.0055 40.8305 32.7568 40.8305C36.5886 40.8305 39.5469 39.6222 41.6317 37.2057L41.8812 40.8249H50.3163V22.8937C50.3163 19.0193 49.4002 15.9561 47.5679 13.7069L47.5651 13.7126ZM41.6289 29.3973C41.6289 30.8552 41.107 32.0436 40.0661 32.9598C38.9428 33.9581 37.5671 34.4601 35.942 34.4601C33.0262 34.4601 31.5684 33.2519 31.5684 30.8354C31.5684 28.1267 33.8573 26.7738 38.4407 26.7738C39.3994 26.7738 40.46 26.856 41.6289 27.0234V29.3973Z" fill="white"/>
</svg>
