<svg width="24" height="24" viewBox="0 0 24 24" fill="none" xmlns="http://www.w3.org/2000/svg">
<path opacity="0.5" d="M17.875 12L9.90812 19.9669C9.29272 20.5823 8.34999 20.729 7.57662 20.3299L6.9446 20.0037C5.6784 19.3502 4.64179 18.3258 3.97329 17.0674L3.56903 16.3065C3.15661 15.5301 3.29945 14.5755 3.92104 13.9539L11.875 6" fill="#2563EB"/>
<path d="M17.3447 1.46967C17.6376 1.17678 18.1124 1.17678 18.4053 1.46967L22.4053 5.46967C22.6982 5.76256 22.6982 6.23744 22.4053 6.53033C22.1124 6.82322 21.6376 6.82322 21.3447 6.53033L19.875 5.06066L16.4357 8.5L19.4053 11.4697C19.6982 11.7626 19.6982 12.2374 19.4053 12.5303C19.1124 12.8232 18.6376 12.8232 18.3447 12.5303L11.3447 5.53033C11.0518 5.23744 11.0518 4.76256 11.3447 4.46967C11.6376 4.17678 12.1124 4.17678 12.4053 4.46967L15.375 7.43934L18.8143 4L17.3447 2.53033C17.0518 2.23744 17.0518 1.76256 17.3447 1.46967Z" fill="#2563EB"/>
<path d="M4.73108 18.2083L2.46967 20.4697C2.17678 20.7626 2.17678 21.2374 2.46967 21.5303C2.76256 21.8232 3.23744 21.8232 3.53033 21.5303L5.79837 19.2623C5.40589 18.9502 5.04805 18.5968 4.73108 18.2083Z" fill="#2563EB"/>
<path d="M11.4696 11.5304L8.9071 8.96789L9.96776 7.90723L12.5303 10.4697C12.8232 10.7626 12.8232 11.2375 12.5303 11.5304C12.2374 11.8233 11.7625 11.8233 11.4696 11.5304Z" fill="#2563EB"/>
<path d="M8.46962 14.5304L5.9071 11.9679L6.96776 10.9072L9.53028 13.4697C9.82317 13.7626 9.82317 14.2375 9.53028 14.5304C9.23738 14.8233 8.76251 14.8233 8.46962 14.5304Z" fill="#2563EB"/>
</svg>
