<svg width="18" height="18" viewBox="0 0 18 18" fill="none" xmlns="http://www.w3.org/2000/svg">
<g clip-path="url(#clip0_227_2088)">
<path d="M6.00128 5.25C6.01036 3.61873 6.0827 2.7353 6.65899 2.15901C7.318 1.5 8.37866 1.5 10.5 1.5H11.25C13.3713 1.5 14.432 1.5 15.091 2.15901C15.75 2.81802 15.75 3.87868 15.75 6V12C15.75 14.1213 15.75 15.182 15.091 15.841C14.432 16.5 13.3713 16.5 11.25 16.5H10.5C8.37866 16.5 7.318 16.5 6.65899 15.841C6.0827 15.2647 6.01036 14.3813 6.00128 12.75" stroke="#94A3B8" stroke-width="1.125" stroke-linecap="round"/>
<path d="M6 14.625C4.23223 14.625 3.34835 14.625 2.79917 14.0758C2.25 13.5266 2.25 12.6428 2.25 10.875V7.125C2.25 5.35723 2.25 4.47335 2.79917 3.92417C3.34835 3.375 4.23223 3.375 6 3.375" stroke="#94A3B8" stroke-width="1.125"/>
<path d="M11.25 9L4.5 9M4.5 9L6 10.5M4.5 9L6 7.5" stroke="#94A3B8" stroke-width="1.125" stroke-linecap="round" stroke-linejoin="round"/>
</g>
<defs>
<clipPath id="clip0_227_2088">
<rect width="18" height="18" rx="3.75" fill="white"/>
</clipPath>
</defs>
</svg>
